<svg id="em3sKy4ijq81" xmlns="http://www.w3.org/2000/svg" xmlns:xlink="http://www.w3.org/1999/xlink" viewBox="0 0 67 67" shape-rendering="geometricPrecision" text-rendering="geometricPrecision">
  <style>
    <![CDATA[
#em3sKy4ijq82_to {animation: em3sKy4ijq82_to__to 1600ms linear infinite normal forwards}@keyframes em3sKy4ijq82_to__to { 0% {transform: translate(43.37px,25.661862px);animation-timing-function: cubic-bezier(0.645,0.045,0.355,1)} 43.75% {transform: translate(39.44px,28.57px);animation-timing-function: cubic-bezier(0.645,0.045,0.355,1)} 93.75% {transform: translate(43.37px,25.66px)} 100% {transform: translate(43.37px,25.66px)}} #em3sKy4ijq82_ts {animation: em3sKy4ijq82_ts__ts 1600ms linear infinite normal forwards}@keyframes em3sKy4ijq82_ts__ts { 0% {transform: scale(1.04,1.02);animation-timing-function: cubic-bezier(0.645,0.045,0.355,1)} 43.75% {transform: scale(0.862294,0.847689);animation-timing-function: cubic-bezier(0.455,0.03,0.515,0.955)} 93.75% {transform: scale(1.04,1.02)} 100% {transform: scale(1.04,1.02)}} #em3sKy4ijq83_ts {animation: em3sKy4ijq83_ts__ts 1600ms linear infinite normal forwards}@keyframes em3sKy4ijq83_ts__ts { 0% {transform: translate(25.971199px,38.926993px) scale(1,1);animation-timing-function: cubic-bezier(0.645,0.045,0.355,1)} 43.75% {transform: translate(25.971199px,38.926993px) scale(0.869594,0.869594);animation-timing-function: cubic-bezier(0.645,0.045,0.355,1)} 93.75% {transform: translate(25.971199px,38.926993px) scale(1,1)} 100% {transform: translate(25.971199px,38.926993px) scale(1,1)}}
]]>
  </style>
  <g id="em3sKy4ijq82_to" transform="translate(43.368216,26.661862)">
    <g id="em3sKy4ijq82_ts" transform="scale(1.08,1.06)">
      <path d="M24.0165,5.79552L57.9969,14.4162c.7818.201,1.3404.8933,1.3404,1.675l.0447,33.2096c0,.7147.8489,1.1167,1.4297.6923l5.4735-3.953c.4469-.335.7149-.8486.7149-1.3846l-.0224-17.085C66.9554,16.7612,59.4266,7.33652,48.5914,4.58953L30.6741,0.055862c-.5363-.134-1.0948-.022329-1.5191.290337L23.7036,4.29919c-.5806.42433-.402,1.31767.3129,1.49633Z" transform="translate(-45.17852,-25.083305)" fill="currentColor"/>
    </g>
  </g>
  <g id="em3sKy4ijq83_ts" transform="translate(25.971199,38.926993) scale(1,1)">
    <path d="M51.9198,32.9081c0-7.5263-5.2722-14.0923-12.8012-16.0129l-16.465-4.1764-7.0151-1.7866c-.5362-.134-1.0947-.0224-1.5191.2903l-6.92569,5.025-6.478807,4.69c-.446816.335-.714905.8487-.714905,1.3847L0.02234,39.4071c0,10.8094,7.55118,20.2563,18.36406,22.981l17.9173,4.5337c.5362.134,1.0948.0223,1.5191-.2904l6.9258-5.025l6.4787-4.69c.4468-.335.7151-.8486.7151-1.3846v-6.8117l-.0226-15.812Zm-7.6181-5.9183l.0223,18.425c0,.7147-.6925,1.2283-1.4074,1.0497L24.0163,41.6851c-.7818-.201-1.3404-.8933-1.3404-1.675l-.0223-18.4249c0-.7147.6925-1.2284,1.4074-1.0497l18.9002,4.7793c.7819.201,1.3405.8934,1.3405,1.675Zm-1.3628,34.17L8.98098,52.5615c-.78193-.201-1.34044-.8934-1.34044-1.675L7.59585,17.7438c0-.7146.69257-1.2283,1.40746-1.0496L14.03,17.9672c.5809.1563,1.0053.67,1.0053,1.2506v9.2684c.0224,10.7869,7.5513,20.2339,18.3865,22.9809l9.9193,2.5237c.5809.1563,1.0053.67,1.0053,1.2507v4.8686c0,.7147-.6926,1.2283-1.4075,1.0497Z" transform="translate(-25.971199,-38.926993)" fill="currentColor"/>
  </g>
</svg>
